<?xml version="1.0" encoding="UTF-8"?><svg xmlns="http://www.w3.org/2000/svg" width="540" height="280" version="1.0" shape-rendering="geometricPrecision"><defs><style type="text/css">@font-face {
  font-family: sans-serif;
}</style><filter id="shadowBlur" x="0" y="0" width="200%" height="200%"><feOffset in="SourceGraphic" dx="3.0003002" dy="3.0003002" result="offOut"></feOffset><feGaussianBlur in="offOut" stdDeviation="3"></feGaussianBlur></filter></defs><g stroke-width="1" stroke-linecap="square" stroke-linejoin="round"><rect x="0" y="0" width="540" height="280" style="fill: #ffffff"></rect><path stroke="#969696" fill="#969696" filter="url(#shadowBlur)" d="M360.0 133.0 Q355.0 133.0 355.0 140.0 L355.0 196.0 Q355.0 203.0 360.0 203.0 L510.0 203.0 L510.0 203.0 Q515.0 203.0 515.0 196.0 L515.0 140.0 L515.0 140.0 Q515.0 133.0 510.0 133.0 L360.0 133.0 z"></path><path stroke="#969696" fill="#969696" filter="url(#shadowBlur)" d="M35.0 133.0 L125.0 133.0 L125.0 203.0 Q95.0 195.0 80.0 203.0 Q65.0 211.0 35.0 203.0 z"></path><path stroke="#969696" fill="#969696" filter="url(#shadowBlur)" d="M355.0 77.0 L215.0 77.0 L215.0 35.0 L355.0 35.0 z"></path><path stroke="#969696" fill="#969696" filter="url(#shadowBlur)" d="M305.0 163.0 L305.0 203.0 L165.0 203.0 L165.0 163.0 z"></path><path stroke="#969696" fill="#969696" filter="url(#shadowBlur)" d="M305.0 133.0 L305.0 159.0 L165.0 159.0 L165.0 133.0 z"></path><path stroke="#000000" stroke-width="1.0" stroke-dasharray="5.000000,5.000000" stroke-miterlimit="0" stroke-linecap="butt" stroke-linejoin="round" fill="white" d="M435.0 217.0 L435.0 245.0 L75.0 245.0 L75.0 203.0 "></path><path stroke="#000000" stroke-width="1.0" stroke-linecap="round" stroke-linejoin="round" fill="white" d="M360.0 133.0 Q355.0 133.0 355.0 140.0 L355.0 196.0 Q355.0 203.0 360.0 203.0 L510.0 203.0 L510.0 203.0 Q515.0 203.0 515.0 196.0 L515.0 140.0 L515.0 140.0 Q515.0 133.0 510.0 133.0 L360.0 133.0 z"></path><path stroke="#000000" stroke-width="1.0" stroke-linecap="round" stroke-linejoin="round" fill="white" d="M35.0 133.0 L125.0 133.0 L125.0 203.0 Q95.0 195.0 80.0 203.0 Q65.0 211.0 35.0 203.0 z"></path><path stroke="#000000" stroke-width="1.0" stroke-linecap="round" stroke-linejoin="round" fill="white" d="M355.0 77.0 L215.0 77.0 L215.0 35.0 L355.0 35.0 z"></path><path stroke="#000000" stroke-width="1.0" stroke-linecap="round" stroke-linejoin="round" fill="white" d="M305.0 163.0 L305.0 203.0 L165.0 203.0 L165.0 163.0 z"></path><path stroke="#000000" stroke-width="1.0" stroke-linecap="round" stroke-linejoin="round" fill="white" d="M305.0 133.0 L305.0 159.0 L165.0 159.0 L165.0 133.0 z"></path><path stroke="#000000" stroke-width="1.0" stroke-linecap="round" stroke-linejoin="round" fill="none" d="M435.0 119.0 L435.0 49.0 L365.0 49.0 "></path><path stroke="none" stroke-width="1.0" stroke-linecap="round" stroke-linejoin="round" fill="#000000" d="M255.0 84.0 L250.0 98.0 L260.0 98.0 z"></path><path stroke="none" stroke-width="1.0" stroke-linecap="round" stroke-linejoin="round" fill="#000000" d="M430.0 112.0 L435.0 126.0 L440.0 112.0 z"></path><path stroke="none" stroke-width="1.0" stroke-linecap="round" stroke-linejoin="round" fill="#000000" d="M330.0 140.0 L340.0 147.0 L330.0 154.0 z"></path><path stroke="none" stroke-width="1.0" stroke-linecap="round" stroke-linejoin="round" fill="#000000" d="M435.0 210.0 L430.0 224.0 L440.0 224.0 z"></path><path stroke="#000000" stroke-width="1.0" stroke-linecap="round" stroke-linejoin="round" fill="none" d="M335.0 147.0 L305.0 147.0 "></path><path stroke="#000000" stroke-width="1.0" stroke-linecap="round" stroke-linejoin="round" fill="none" d="M255.0 91.0 L255.0 133.0 "></path><path stroke="#000000" stroke-width="1.0" stroke-linecap="round" stroke-linejoin="round" fill="none" d="M165.0 147.0 L145.0 147.0 "></path><text x="240" y="54" font-family="sans-serif" font-size="15" stroke="none" fill="#000000"><![CDATA[Asciidoctor]]></text><text x="252" y="68" font-family="sans-serif" font-size="15" stroke="none" fill="#000000"><![CDATA[diagram]]></text><text x="399" y="166" font-family="sans-serif" font-size="15" stroke="none" fill="#000000"><![CDATA[Beautiful]]></text><text x="402" y="180" font-family="sans-serif" font-size="15" stroke="none" fill="#000000"><![CDATA[Output]]></text><text x="61" y="166" font-family="sans-serif" font-size="15" stroke="none" fill="#000000"><![CDATA[Text]]></text><text x="40" y="180" font-family="sans-serif" font-size="14" stroke="none" fill="#000000"><![CDATA[Document]]></text><text x="280" y="110" font-family="sans-serif" font-size="15" stroke="none" fill="#000000"><![CDATA[ditaa in]]></text><text x="190" y="152" font-family="sans-serif" font-size="15" stroke="none" fill="#000000"><![CDATA[Asciidoctor]]></text><text x="452" y="82" font-family="sans-serif" font-size="15" stroke="none" fill="#000000"><![CDATA[PNG out]]></text><text x="204" y="180" font-family="sans-serif" font-size="15" stroke="none" fill="#000000"><![CDATA[!magic!]]></text><text x="188" y="236" font-family="sans-serif" font-size="15" stroke="none" fill="#000000"><![CDATA[Lots of work]]></text></g></svg>